<?xml version="1.0" standalone="no"?>
<!DOCTYPE svg PUBLIC "-//W3C//DTD SVG 20010904//EN"
 "http://www.w3.org/TR/2001/REC-SVG-20010904/DTD/svg10.dtd">
<svg version="1.0" xmlns="http://www.w3.org/2000/svg"
 width="1000.000000pt" height="1000.000000pt" viewBox="0 0 1000.000000 1000.000000"
 preserveAspectRatio="xMidYMid meet">
<metadata>
Created by potrace 1.11, written by Peter Selinger 2001-2013
</metadata>
<g transform="translate(0.000000,1000.000000) scale(0.100000,-0.100000)"
fill="#000000" stroke="none">
<path d="M3064 8678 l-2122 -1221 -6 -1861 c-4 -1024 -6 -2128 -4 -2455 l3
-594 2119 -1229 2118 -1228 2123 1222 2123 1221 6 1751 c4 963 6 2068 4 2455
l-3 705 -2119 1228 c-1165 675 -2119 1228 -2120 1228 0 -1 -956 -550 -2122
-1222z m281 -824 l37 -45 -332 -1712 c-182 -942 -334 -1722 -337 -1734 l-5
-23 820 0 821 0 37 -45 37 -45 -58 -295 -57 -295 -1237 0 -1237 0 -37 44 c-20
25 -37 51 -37 60 0 12 780 4049 795 4114 l5 22 374 0 374 0 37 -46z m4685
-1639 c233 -31 422 -80 573 -149 l78 -35 -161 -321 c-88 -176 -163 -320 -167
-320 -4 0 -43 15 -88 34 -106 46 -234 82 -375 107 -147 27 -516 37 -670 20
-309 -35 -593 -137 -840 -302 -135 -90 -334 -291 -429 -433 -302 -453 -423
-1119 -285 -1558 47 -147 106 -249 208 -357 226 -236 586 -342 1058 -311 153
10 353 42 371 59 8 8 197 970 197 1003 0 17 -17 18 -339 18 l-340 0 -35 44
-36 43 50 264 c28 145 53 272 56 282 5 16 50 17 752 17 l747 0 38 -46 c20 -26
37 -50 37 -53 0 -26 -401 -2066 -407 -2072 -13 -11 -166 -58 -318 -95 -172
-43 -431 -88 -636 -111 -215 -24 -663 -24 -844 1 -658 88 -1086 347 -1319 796
-139 268 -201 611 -176 972 96 1382 1087 2375 2510 2517 148 15 642 6 790 -14z"/>
</g>
</svg>
